<mxfile host="app.diagrams.net" modified="2022-06-14T15:03:29.951Z" agent="5.0 (Windows NT 10.0; Win64; x64) AppleWebKit/537.36 (KHTML, like Gecko) Chrome/101.0.4951.67 Safari/537.36 OPR/87.0.4390.56" etag="0IeEHEAbA-dpSIGuuZgp" version="20.0.1" type="github">
  <diagram id="RlML46qO7QQwRxKiT4tr" name="Page-1">
    <mxGraphModel dx="2493" dy="1448" grid="1" gridSize="10" guides="1" tooltips="1" connect="1" arrows="1" fold="1" page="1" pageScale="1" pageWidth="827" pageHeight="1169" background="#283618" math="0" shadow="0">
      <root>
        <mxCell id="0" />
        <mxCell id="1" parent="0" />
        <mxCell id="HNYcZ1OzalCUMynlkFFV-2" value="&lt;font style=&quot;font-size: 18px;&quot;&gt;Início&lt;/font&gt;" style="ellipse;whiteSpace=wrap;html=1;fillColor=#BC6C25;strokeColor=#DDA15E;fontColor=#FEFAE0;fontStyle=2;rounded=0;" vertex="1" parent="1">
          <mxGeometry x="50" y="10" width="120" height="80" as="geometry" />
        </mxCell>
        <mxCell id="HNYcZ1OzalCUMynlkFFV-4" value="" style="endArrow=classic;html=1;rounded=0;fontSize=18;labelBackgroundColor=#283618;strokeColor=#DDA15E;fontColor=#FEFAE0;" edge="1" parent="1">
          <mxGeometry width="50" height="50" relative="1" as="geometry">
            <mxPoint x="110" y="100" as="sourcePoint" />
            <mxPoint x="110" y="130" as="targetPoint" />
          </mxGeometry>
        </mxCell>
        <mxCell id="HNYcZ1OzalCUMynlkFFV-5" value="&lt;font style=&quot;font-size: 11px;&quot;&gt;&lt;i&gt;Informe a data do evento&lt;/i&gt;&lt;/font&gt;" style="shape=display;whiteSpace=wrap;html=1;fontSize=18;fillColor=#BC6C25;fontColor=#FEFAE0;strokeColor=#DDA15E;align=center;size=0.13333333333333333;rounded=0;" vertex="1" parent="1">
          <mxGeometry x="35" y="140" width="150" height="60" as="geometry" />
        </mxCell>
        <mxCell id="HNYcZ1OzalCUMynlkFFV-6" value="&lt;font style=&quot;font-size: 11px;&quot;&gt;&lt;i style=&quot;&quot;&gt;Se data do&amp;nbsp;&lt;br&gt;evento for&lt;br&gt;&amp;gt; data atual&lt;/i&gt;&lt;/font&gt;" style="rhombus;whiteSpace=wrap;html=1;fontSize=11;fillColor=#BC6C25;fontColor=#FEFAE0;strokeColor=#DDA15E;rounded=0;" vertex="1" parent="1">
          <mxGeometry x="52.5" y="370" width="115" height="110" as="geometry" />
        </mxCell>
        <mxCell id="HNYcZ1OzalCUMynlkFFV-7" value="" style="endArrow=classic;html=1;rounded=0;fontSize=11;labelBackgroundColor=#283618;strokeColor=#DDA15E;fontColor=#FEFAE0;" edge="1" parent="1">
          <mxGeometry width="50" height="50" relative="1" as="geometry">
            <mxPoint x="107" y="210" as="sourcePoint" />
            <mxPoint x="107" y="250" as="targetPoint" />
          </mxGeometry>
        </mxCell>
        <mxCell id="HNYcZ1OzalCUMynlkFFV-9" value="" style="endArrow=classic;html=1;rounded=0;fontSize=14;labelBackgroundColor=#283618;strokeColor=#DDA15E;fontColor=#FEFAE0;" edge="1" parent="1">
          <mxGeometry relative="1" as="geometry">
            <mxPoint x="180" y="425" as="sourcePoint" />
            <mxPoint x="290" y="425" as="targetPoint" />
          </mxGeometry>
        </mxCell>
        <mxCell id="HNYcZ1OzalCUMynlkFFV-10" value="&amp;nbsp;Sim&amp;nbsp;" style="edgeLabel;resizable=0;html=1;align=center;verticalAlign=middle;fontSize=14;rounded=0;labelBackgroundColor=#283618;fontColor=#FEFAE0;" connectable="0" vertex="1" parent="HNYcZ1OzalCUMynlkFFV-9">
          <mxGeometry relative="1" as="geometry" />
        </mxCell>
        <mxCell id="HNYcZ1OzalCUMynlkFFV-11" value="Não" style="endArrow=classic;html=1;rounded=0;fontSize=14;targetPerimeterSpacing=0;labelBackgroundColor=#283618;strokeColor=#DDA15E;fontColor=#FEFAE0;" edge="1" parent="1">
          <mxGeometry x="0.1111" relative="1" as="geometry">
            <mxPoint x="110" y="490" as="sourcePoint" />
            <mxPoint x="109.5" y="560" as="targetPoint" />
            <Array as="points">
              <mxPoint x="110" y="510" />
            </Array>
            <mxPoint as="offset" />
          </mxGeometry>
        </mxCell>
        <mxCell id="HNYcZ1OzalCUMynlkFFV-13" value="&lt;i&gt;Data válida&lt;/i&gt;" style="shape=display;whiteSpace=wrap;html=1;fontSize=14;fillColor=#BC6C25;fontColor=#FEFAE0;strokeColor=#DDA15E;rounded=0;" vertex="1" parent="1">
          <mxGeometry x="300" y="385" width="146" height="80" as="geometry" />
        </mxCell>
        <mxCell id="HNYcZ1OzalCUMynlkFFV-14" value="&lt;i&gt;Data inválida&lt;/i&gt;" style="shape=display;whiteSpace=wrap;html=1;fontSize=14;fillColor=#BC6C25;fontColor=#FEFAE0;strokeColor=#DDA15E;rounded=0;" vertex="1" parent="1">
          <mxGeometry x="34" y="570" width="146" height="80" as="geometry" />
        </mxCell>
        <mxCell id="HNYcZ1OzalCUMynlkFFV-15" value="&lt;font style=&quot;font-size: 12px;&quot;&gt;Informe sua&amp;nbsp;&lt;br&gt;idade&lt;/font&gt;" style="shape=display;whiteSpace=wrap;html=1;fontSize=14;fillColor=#BC6C25;fontColor=#FEFAE0;strokeColor=#DDA15E;align=center;size=0.2413793103448276;rounded=0;" vertex="1" parent="1">
          <mxGeometry x="320" y="140" width="119" height="70" as="geometry" />
        </mxCell>
        <mxCell id="HNYcZ1OzalCUMynlkFFV-16" value="" style="endArrow=classic;html=1;rounded=0;fontSize=14;targetPerimeterSpacing=0;labelBackgroundColor=#283618;strokeColor=#DDA15E;fontColor=#FEFAE0;" edge="1" parent="1">
          <mxGeometry width="50" height="50" relative="1" as="geometry">
            <mxPoint x="590" y="370" as="sourcePoint" />
            <mxPoint x="590" y="420" as="targetPoint" />
          </mxGeometry>
        </mxCell>
        <mxCell id="HNYcZ1OzalCUMynlkFFV-17" value="&lt;font style=&quot;font-size: 12px;&quot;&gt;Se idade &amp;gt;=&lt;br&gt;a 18&lt;/font&gt;" style="rhombus;whiteSpace=wrap;html=1;fontSize=14;fillColor=#BC6C25;fontColor=#FEFAE0;strokeColor=#DDA15E;rounded=0;" vertex="1" parent="1">
          <mxGeometry x="540" y="10" width="100" height="95" as="geometry" />
        </mxCell>
        <mxCell id="HNYcZ1OzalCUMynlkFFV-18" value="" style="endArrow=classic;html=1;rounded=0;fontSize=12;targetPerimeterSpacing=0;labelBackgroundColor=#283618;strokeColor=#DDA15E;fontColor=#FEFAE0;" edge="1" parent="1">
          <mxGeometry width="50" height="50" relative="1" as="geometry">
            <mxPoint x="797" y="340" as="sourcePoint" />
            <mxPoint x="797" y="1070" as="targetPoint" />
          </mxGeometry>
        </mxCell>
        <mxCell id="HNYcZ1OzalCUMynlkFFV-19" value="&lt;font style=&quot;font-size: 18px;&quot;&gt;Fim&lt;/font&gt;" style="ellipse;whiteSpace=wrap;html=1;fontSize=12;fillColor=#BC6C25;fontColor=#FEFAE0;strokeColor=#DDA15E;rounded=0;" vertex="1" parent="1">
          <mxGeometry x="741" y="1080" width="120" height="80" as="geometry" />
        </mxCell>
        <mxCell id="HNYcZ1OzalCUMynlkFFV-20" value="&lt;font style=&quot;font-size: 12px;&quot;&gt;&amp;nbsp;Não&amp;nbsp;&lt;/font&gt;" style="endArrow=classic;html=1;rounded=0;fontSize=18;targetPerimeterSpacing=0;labelBackgroundColor=#283618;strokeColor=#DDA15E;fontColor=#FEFAE0;" edge="1" parent="1">
          <mxGeometry relative="1" as="geometry">
            <mxPoint x="650" y="57.08" as="sourcePoint" />
            <mxPoint x="730" y="57" as="targetPoint" />
            <Array as="points" />
            <mxPoint as="offset" />
          </mxGeometry>
        </mxCell>
        <mxCell id="HNYcZ1OzalCUMynlkFFV-22" value="" style="endArrow=classic;html=1;rounded=0;fontSize=14;targetPerimeterSpacing=0;labelBackgroundColor=#283618;strokeColor=#DDA15E;fontColor=#FEFAE0;" edge="1" parent="1">
          <mxGeometry relative="1" as="geometry">
            <mxPoint x="590" y="110" as="sourcePoint" />
            <mxPoint x="590" y="160" as="targetPoint" />
            <Array as="points" />
          </mxGeometry>
        </mxCell>
        <mxCell id="HNYcZ1OzalCUMynlkFFV-23" value="Sim" style="edgeLabel;resizable=0;html=1;align=center;verticalAlign=middle;fontSize=14;rounded=0;labelBackgroundColor=#283618;fontColor=#FEFAE0;" connectable="0" vertex="1" parent="HNYcZ1OzalCUMynlkFFV-22">
          <mxGeometry relative="1" as="geometry" />
        </mxCell>
        <mxCell id="HNYcZ1OzalCUMynlkFFV-25" value="&lt;font style=&quot;font-size: 11px;&quot;&gt;Ler data informada&lt;br&gt;e buscar data do evento&lt;/font&gt;" style="shape=manualInput;whiteSpace=wrap;html=1;rounded=0;sketch=0;fontColor=#FEFAE0;strokeColor=#DDA15E;fillColor=#BC6C25;size=13;" vertex="1" parent="1">
          <mxGeometry x="50" y="250" width="130" height="70" as="geometry" />
        </mxCell>
        <mxCell id="HNYcZ1OzalCUMynlkFFV-26" value="" style="endArrow=classic;html=1;rounded=1;sketch=0;fontSize=11;fontColor=#FEFAE0;strokeColor=#DDA15E;fillColor=#BC6C25;curved=0;" edge="1" parent="1">
          <mxGeometry width="50" height="50" relative="1" as="geometry">
            <mxPoint x="110" y="330" as="sourcePoint" />
            <mxPoint x="110" y="360" as="targetPoint" />
          </mxGeometry>
        </mxCell>
        <mxCell id="HNYcZ1OzalCUMynlkFFV-28" value="" style="endArrow=classic;html=1;rounded=1;sketch=0;fontSize=11;fontColor=#FEFAE0;strokeColor=#DDA15E;fillColor=#BC6C25;curved=0;" edge="1" parent="1">
          <mxGeometry width="50" height="50" relative="1" as="geometry">
            <mxPoint x="110" y="660" as="sourcePoint" />
            <mxPoint x="730" y="1140" as="targetPoint" />
            <Array as="points">
              <mxPoint x="110" y="1140" />
            </Array>
          </mxGeometry>
        </mxCell>
        <mxCell id="HNYcZ1OzalCUMynlkFFV-29" value="Continuar cadastro" style="rounded=0;whiteSpace=wrap;html=1;sketch=0;fontSize=11;fontColor=#FEFAE0;strokeColor=#DDA15E;fillColor=#BC6C25;" vertex="1" parent="1">
          <mxGeometry x="320" y="270" width="120" height="60" as="geometry" />
        </mxCell>
        <mxCell id="HNYcZ1OzalCUMynlkFFV-30" value="" style="endArrow=classic;html=1;rounded=1;sketch=0;fontSize=11;fontColor=#FEFAE0;strokeColor=#DDA15E;fillColor=#BC6C25;curved=0;" edge="1" parent="1">
          <mxGeometry width="50" height="50" relative="1" as="geometry">
            <mxPoint x="380" y="380" as="sourcePoint" />
            <mxPoint x="380" y="340" as="targetPoint" />
          </mxGeometry>
        </mxCell>
        <mxCell id="HNYcZ1OzalCUMynlkFFV-31" value="" style="endArrow=classic;html=1;rounded=1;sketch=0;fontSize=12;fontColor=#FEFAE0;strokeColor=#DDA15E;fillColor=#BC6C25;curved=0;" edge="1" parent="1">
          <mxGeometry width="50" height="50" relative="1" as="geometry">
            <mxPoint x="380" y="260" as="sourcePoint" />
            <mxPoint x="380" y="220" as="targetPoint" />
          </mxGeometry>
        </mxCell>
        <mxCell id="HNYcZ1OzalCUMynlkFFV-32" value="&lt;span style=&quot;font-size: 11px;&quot;&gt;Ler idade informada&lt;br&gt;&lt;/span&gt;pelo usuário" style="shape=manualInput;whiteSpace=wrap;html=1;rounded=0;sketch=0;fontColor=#FEFAE0;strokeColor=#DDA15E;fillColor=#BC6C25;size=13;" vertex="1" parent="1">
          <mxGeometry x="315" y="20" width="130" height="70" as="geometry" />
        </mxCell>
        <mxCell id="HNYcZ1OzalCUMynlkFFV-33" value="" style="endArrow=classic;html=1;rounded=1;sketch=0;fontSize=12;fontColor=#FEFAE0;strokeColor=#DDA15E;fillColor=#BC6C25;curved=0;" edge="1" parent="1">
          <mxGeometry width="50" height="50" relative="1" as="geometry">
            <mxPoint x="380" y="130" as="sourcePoint" />
            <mxPoint x="380" y="100" as="targetPoint" />
          </mxGeometry>
        </mxCell>
        <mxCell id="HNYcZ1OzalCUMynlkFFV-34" value="" style="endArrow=classic;html=1;rounded=1;sketch=0;fontSize=12;fontColor=#FEFAE0;strokeColor=#DDA15E;fillColor=#BC6C25;curved=0;" edge="1" parent="1">
          <mxGeometry width="50" height="50" relative="1" as="geometry">
            <mxPoint x="460" y="60" as="sourcePoint" />
            <mxPoint x="530" y="60" as="targetPoint" />
          </mxGeometry>
        </mxCell>
        <mxCell id="HNYcZ1OzalCUMynlkFFV-35" value="Continuar cadastro" style="rounded=0;whiteSpace=wrap;html=1;sketch=0;fontSize=11;fontColor=#FEFAE0;strokeColor=#DDA15E;fillColor=#BC6C25;" vertex="1" parent="1">
          <mxGeometry x="530" y="170" width="120" height="60" as="geometry" />
        </mxCell>
        <mxCell id="HNYcZ1OzalCUMynlkFFV-37" value="Não prosseguir&lt;br&gt;cadastro" style="rounded=0;whiteSpace=wrap;html=1;sketch=0;fontSize=11;fontColor=#FEFAE0;strokeColor=#DDA15E;fillColor=#BC6C25;" vertex="1" parent="1">
          <mxGeometry x="740" y="25" width="120" height="60" as="geometry" />
        </mxCell>
        <mxCell id="HNYcZ1OzalCUMynlkFFV-38" value="" style="endArrow=classic;html=1;rounded=1;sketch=0;fontSize=12;fontColor=#FEFAE0;strokeColor=#DDA15E;fillColor=#BC6C25;curved=0;" edge="1" parent="1">
          <mxGeometry width="50" height="50" relative="1" as="geometry">
            <mxPoint x="800" y="100" as="sourcePoint" />
            <mxPoint x="800" y="140" as="targetPoint" />
          </mxGeometry>
        </mxCell>
        <mxCell id="HNYcZ1OzalCUMynlkFFV-39" value="&lt;font style=&quot;font-size: 12px;&quot;&gt;&lt;font style=&quot;&quot;&gt;Cadastro não&lt;br&gt;permitido por&amp;nbsp;&lt;/font&gt;idade do usuário&lt;/font&gt;" style="shape=display;whiteSpace=wrap;html=1;fontSize=14;fillColor=#BC6C25;fontColor=#FEFAE0;strokeColor=#DDA15E;align=center;size=0.2413793103448276;rounded=0;" vertex="1" parent="1">
          <mxGeometry x="741" y="150" width="119" height="70" as="geometry" />
        </mxCell>
        <mxCell id="HNYcZ1OzalCUMynlkFFV-40" value="Finalizar processo" style="rounded=0;whiteSpace=wrap;html=1;sketch=0;fontSize=11;fontColor=#FEFAE0;strokeColor=#DDA15E;fillColor=#BC6C25;" vertex="1" parent="1">
          <mxGeometry x="740" y="270" width="120" height="60" as="geometry" />
        </mxCell>
        <mxCell id="HNYcZ1OzalCUMynlkFFV-41" value="" style="endArrow=classic;html=1;rounded=1;sketch=0;fontSize=12;fontColor=#FEFAE0;strokeColor=#DDA15E;fillColor=#BC6C25;curved=0;" edge="1" parent="1">
          <mxGeometry width="50" height="50" relative="1" as="geometry">
            <mxPoint x="800" y="230" as="sourcePoint" />
            <mxPoint x="800" y="260" as="targetPoint" />
          </mxGeometry>
        </mxCell>
        <mxCell id="HNYcZ1OzalCUMynlkFFV-42" value="" style="endArrow=classic;html=1;rounded=1;sketch=0;fontSize=12;fontColor=#FEFAE0;strokeColor=#DDA15E;fillColor=#BC6C25;curved=0;" edge="1" parent="1">
          <mxGeometry width="50" height="50" relative="1" as="geometry">
            <mxPoint x="590" y="240" as="sourcePoint" />
            <mxPoint x="590" y="280" as="targetPoint" />
          </mxGeometry>
        </mxCell>
        <mxCell id="HNYcZ1OzalCUMynlkFFV-43" value="Listar participantes&lt;br&gt;e palestrantes do&lt;br&gt;evento&amp;nbsp;" style="rounded=0;whiteSpace=wrap;html=1;sketch=0;fontSize=12;fontColor=#FEFAE0;strokeColor=#DDA15E;fillColor=#BC6C25;" vertex="1" parent="1">
          <mxGeometry x="530" y="300" width="120" height="60" as="geometry" />
        </mxCell>
        <mxCell id="HNYcZ1OzalCUMynlkFFV-44" value="Quantidade&lt;br&gt;de participantes&lt;br&gt;do evento&lt;br&gt;inferior a 100" style="rhombus;whiteSpace=wrap;html=1;rounded=0;sketch=0;fontSize=12;fontColor=#FEFAE0;strokeColor=#DDA15E;fillColor=#BC6C25;" vertex="1" parent="1">
          <mxGeometry x="527.5" y="430" width="125" height="120" as="geometry" />
        </mxCell>
        <mxCell id="HNYcZ1OzalCUMynlkFFV-47" value="" style="endArrow=classic;html=1;rounded=1;sketch=0;fontSize=12;fontColor=#FEFAE0;strokeColor=#DDA15E;fillColor=#BC6C25;curved=0;" edge="1" parent="1">
          <mxGeometry width="50" height="50" relative="1" as="geometry">
            <mxPoint x="670" y="490" as="sourcePoint" />
            <mxPoint x="740" y="1100" as="targetPoint" />
            <Array as="points">
              <mxPoint x="720" y="490" />
              <mxPoint x="720" y="1020" />
            </Array>
          </mxGeometry>
        </mxCell>
        <mxCell id="HNYcZ1OzalCUMynlkFFV-48" value="&lt;font style=&quot;font-size: 14px;&quot;&gt;Não&lt;/font&gt;" style="text;html=1;align=center;verticalAlign=middle;resizable=0;points=[];autosize=1;strokeColor=none;fillColor=none;fontSize=12;fontColor=#FEFAE0;" vertex="1" parent="1">
          <mxGeometry x="670" y="465" width="40" height="20" as="geometry" />
        </mxCell>
        <mxCell id="HNYcZ1OzalCUMynlkFFV-50" value="" style="endArrow=classic;html=1;rounded=0;fontSize=14;targetPerimeterSpacing=0;labelBackgroundColor=#283618;strokeColor=#DDA15E;fontColor=#FEFAE0;" edge="1" parent="1">
          <mxGeometry relative="1" as="geometry">
            <mxPoint x="589.5" y="560" as="sourcePoint" />
            <mxPoint x="570" y="630" as="targetPoint" />
            <Array as="points" />
          </mxGeometry>
        </mxCell>
        <mxCell id="HNYcZ1OzalCUMynlkFFV-51" value="Sim" style="edgeLabel;resizable=0;html=1;align=center;verticalAlign=middle;fontSize=14;rounded=0;labelBackgroundColor=#283618;fontColor=#FEFAE0;" connectable="0" vertex="1" parent="HNYcZ1OzalCUMynlkFFV-50">
          <mxGeometry relative="1" as="geometry" />
        </mxCell>
        <mxCell id="HNYcZ1OzalCUMynlkFFV-52" value="Permitir cadastro" style="rounded=0;whiteSpace=wrap;html=1;sketch=0;fontSize=11;fontColor=#FEFAE0;strokeColor=#DDA15E;fillColor=#BC6C25;direction=west;" vertex="1" parent="1">
          <mxGeometry x="500" y="640" width="120" height="60" as="geometry" />
        </mxCell>
        <mxCell id="HNYcZ1OzalCUMynlkFFV-53" value="Finalizar cadastro" style="rounded=0;whiteSpace=wrap;html=1;sketch=0;fontSize=14;fontColor=#FEFAE0;strokeColor=#DDA15E;fillColor=#BC6C25;" vertex="1" parent="1">
          <mxGeometry x="660" y="550" width="120" height="60" as="geometry" />
        </mxCell>
        <mxCell id="HNYcZ1OzalCUMynlkFFV-54" value="&lt;font style=&quot;font-size: 11px;&quot;&gt;Cadastro não&lt;br&gt;permitido por&lt;br&gt;exceder o limite&amp;nbsp;&lt;br&gt;de participantes&lt;/font&gt;" style="shape=display;whiteSpace=wrap;html=1;rounded=0;sketch=0;fontSize=14;fontColor=#FEFAE0;strokeColor=#DDA15E;fillColor=#BC6C25;" vertex="1" parent="1">
          <mxGeometry x="650" y="730" width="130" height="80" as="geometry" />
        </mxCell>
        <mxCell id="HNYcZ1OzalCUMynlkFFV-57" value="" style="endArrow=classic;html=1;rounded=1;sketch=0;fontSize=11;fontColor=#FEFAE0;strokeColor=#DDA15E;fillColor=#BC6C25;curved=0;" edge="1" parent="1">
          <mxGeometry width="50" height="50" relative="1" as="geometry">
            <mxPoint x="550" y="720" as="sourcePoint" />
            <mxPoint x="490" y="810" as="targetPoint" />
          </mxGeometry>
        </mxCell>
        <mxCell id="HNYcZ1OzalCUMynlkFFV-58" value="&lt;font style=&quot;font-size: 14px;&quot;&gt;Cadastro finalizado&lt;/font&gt;" style="shape=display;whiteSpace=wrap;html=1;rounded=0;sketch=0;fontSize=11;fontColor=#FEFAE0;strokeColor=#DDA15E;fillColor=#BC6C25;" vertex="1" parent="1">
          <mxGeometry x="390" y="820" width="160" height="80" as="geometry" />
        </mxCell>
        <mxCell id="HNYcZ1OzalCUMynlkFFV-59" value="" style="endArrow=classic;html=1;rounded=1;sketch=0;fontSize=14;fontColor=#FEFAE0;strokeColor=#DDA15E;fillColor=#BC6C25;curved=0;" edge="1" parent="1">
          <mxGeometry width="50" height="50" relative="1" as="geometry">
            <mxPoint x="480" y="910" as="sourcePoint" />
            <mxPoint x="730" y="1120" as="targetPoint" />
            <Array as="points">
              <mxPoint x="480" y="1120" />
            </Array>
          </mxGeometry>
        </mxCell>
      </root>
    </mxGraphModel>
  </diagram>
</mxfile>
